# xmcd
#
# Track frame offsets:
#	150
#	32233
#	42332
#	52247
#	66966
#	81485
#	95565
#	109012
#	122696
#	133475
#	148735
#	161514
#	183249
#	202341
#	237716
#	248419
#	263634
#	277279
#	326842
#
# Disc length: 4675 seconds
#
# Revision: 8
# Processed by: cddbd v1.5.2PL0 Copyright (c) Steve Scherf et al.
# Submitted via: EasyCDDAExtractor 12.0.1.1
#
DISCID=35124113
DTITLE=Doors - Best Of The Doors [2000 Double Disc 1]
DYEAR=2000
DGENRE=Blues
TTITLE0=Light My Fire
TTITLE1=Hello, I Love You
TTITLE2=People Are Strange
TTITLE3=Love Me Two Times
TTITLE4=Touch Me
TTITLE5=Strange Days
TTITLE6=Spanish Caravan
TTITLE7=Moonlight Drive
TTITLE8=We Could Be So Good Together
TTITLE9=The Unknown Soldier
TTITLE10=Queen Of The Highway
TTITLE11=Shaman's Blues
TTITLE12=The WASP (Texas Radio)
TTITLE13=L A Woman
TTITLE14=Whiskeys, Mystics And Men
TTITLE15=Summer's Almost Gone
TTITLE16=You Are Lost Little Girl
TTITLE17=When The Music's Over
TTITLE18=No Me Moleste Mosquito
EXTD=YEAR: 2000
EXTT0=
EXTT1=
EXTT2=
EXTT3=
EXTT4=
EXTT5=
EXTT6=
EXTT7=
EXTT8=
EXTT9=
EXTT10=
EXTT11=
EXTT12=
EXTT13=
EXTT14=
EXTT15=
EXTT16=
EXTT17=
EXTT18=
PLAYORDER=
